<svg width="113" height="113" viewBox="0 0 113 113" fill="none" xmlns="http://www.w3.org/2000/svg">
  <rect width="113" height="113" fill="white"/>
  <rect x="21" y="67" width="71" height="12" fill="black"/>
  <path d="M35.3398 48V44.2539L42.6953 38.0742C44.1992 36.8027 45.1152 35.873 45.1289 34.4375C45.1152 32.8926 44.0215 31.9492 42.5039 31.9492C40.9727 31.9492 39.9199 32.9199 39.9336 34.6016H34.9844C34.9707 30.4727 37.9512 27.9297 42.5039 27.9297C47.1934 27.9297 50.1875 30.3496 50.1875 34C50.1875 36.2969 49.0527 38.2246 44.582 41.9844L42.5859 43.707V43.8164H50.4062V48H35.3398ZM55.7383 48.3008C54.2754 48.3008 53.0723 47.125 53.0859 45.6484C53.0723 44.1992 54.2754 43.0234 55.7383 43.0234C57.1328 43.0234 58.377 44.1992 58.3906 45.6484C58.377 47.125 57.1328 48.3008 55.7383 48.3008ZM68.5078 27.9297C73.0469 27.9297 76.9844 30.6367 77.0117 37.7734C77.0254 44.2949 73.6211 48.2734 68.4531 48.2734C64.1055 48.2734 61.1934 45.5254 60.8516 42.0664H65.9922C66.252 43.2969 67.25 43.8438 68.4531 43.8438C70.7637 43.8438 71.8164 41.6836 71.8438 38.293H71.707C70.9414 40.1113 68.9043 41.1914 66.6484 41.1914C63.0801 41.1914 60.6465 38.5527 60.6328 34.957C60.6055 30.7598 63.832 27.9297 68.5078 27.9297ZM65.6914 34.7656C65.7051 36.3926 66.8672 37.6367 68.5352 37.6367C70.1621 37.6367 71.4062 36.3789 71.3789 34.7656C71.3652 33.1387 70.1621 31.8809 68.5352 31.8945C66.8809 31.8809 65.6641 33.125 65.6914 34.7656Z" fill="black"/>
</svg>